<svg width="160" height="32" viewBox="0 0 160 32" fill="none" xmlns="http://www.w3.org/2000/svg">
<path d="M27.6549 22.9573L27.4816 22.7413C26.1096 21.0066 24.9629 20.104 23.9789 19.9853C23.1282 19.8693 22.3056 20.4573 21.4309 21.0626L20.4962 21.6466C20.3842 21.7026 20.2736 21.748 20.1696 21.7786C19.6229 21.9333 18.2429 22.024 17.4616 21.3093C16.5522 20.4773 15.1416 18.9546 14.0442 17.624C12.9962 16.2466 11.8442 14.5293 11.2429 13.448C10.7349 12.532 11.1602 11.2506 11.4442 10.776C11.5002 10.6826 11.5736 10.5906 11.6549 10.5L12.4789 9.73865C12.4909 9.72665 12.4962 9.71198 12.5069 9.70131C12.5149 9.69331 12.5282 9.69598 12.5376 9.68931C13.2816 9.06131 14.0509 8.41465 14.1562 7.58398C14.2802 6.60798 13.6736 5.28798 12.2989 3.55465L12.1309 3.33865C11.2802 2.24798 9.99357 0.598646 8.14557 0.870646C7.4189 0.978646 6.76957 1.22665 6.10023 1.64665C6.09357 1.65065 6.08957 1.65865 6.08423 1.66265C6.0789 1.66665 6.07223 1.66665 6.0669 1.67065L5.1349 2.36131C5.12557 2.36665 5.12023 2.37865 5.1109 2.38665C5.10423 2.39331 5.09357 2.39465 5.08557 2.40131C4.97757 2.49198 4.86957 2.58531 4.7629 2.68131C3.81757 3.52398 1.7709 5.97065 3.1669 10.496C4.06823 13.4186 5.9269 16.8293 8.5549 20.3786L8.52957 20.4L9.9789 22.2053L9.9909 22.196C12.8402 25.5666 15.7402 28.172 18.3976 29.7493C20.1709 30.8026 21.7202 31.1506 22.9949 31.1506C24.6722 31.1506 25.8736 30.548 26.4762 30.156L26.8549 29.9026C26.8976 29.8733 26.9282 29.832 26.9589 29.7946L27.7842 29.1733C27.7936 29.1653 27.7989 29.1546 27.8082 29.1466C27.8122 29.1426 27.8189 29.144 27.8242 29.14C28.4109 28.604 28.8176 28.0426 29.1002 27.3773C29.8322 25.672 28.5216 24.0386 27.6549 22.9573ZM28.1202 26.9586C27.9002 27.476 27.5789 27.916 27.1149 28.3426L25.8869 29.2666C24.7749 29.9893 22.3976 30.8826 18.9442 28.832C16.2869 27.2546 13.3616 24.588 10.4829 21.12L9.70423 20.136C6.99357 16.5413 5.0869 13.0986 4.1869 10.1813C3.01757 6.38798 4.4909 4.35331 5.47757 3.47465C5.57757 3.38398 5.67757 3.29998 5.77623 3.21598L5.78023 3.21198L6.6749 2.54931C7.2189 2.20531 7.7229 2.01331 8.3029 1.92531C9.54157 1.73865 10.5496 3.04531 11.2896 3.99465L11.4629 4.21465C12.9989 6.15198 13.1469 7.07331 13.0989 7.44931C13.0456 7.86665 12.4109 8.40131 11.8509 8.87198L11.7722 8.93865C11.7696 8.94131 11.7682 8.94531 11.7656 8.94798C11.7616 8.95065 11.7576 8.95198 11.7536 8.95465L10.9016 9.74265C10.8962 9.74798 10.8936 9.75465 10.8882 9.76131C10.8829 9.76798 10.8722 9.77065 10.8669 9.77731C10.7349 9.92531 10.6216 10.0733 10.5296 10.2266C10.0509 11.028 9.5989 12.684 10.3122 13.9653C10.9349 15.0853 12.1202 16.8546 13.2096 18.284C14.3482 19.6653 15.8002 21.2333 16.7416 22.0933C17.4469 22.7373 18.4282 22.9533 19.2776 22.9533C19.7322 22.9533 20.1496 22.8906 20.4656 22.8013C20.6322 22.7533 20.8042 22.684 20.9816 22.5973C20.9922 22.592 20.9976 22.5826 21.0082 22.576C21.0136 22.5733 21.0216 22.5746 21.0269 22.5706L22.0162 21.952C22.0482 21.9306 22.0696 21.9026 22.0962 21.876L22.1082 21.8893C22.7176 21.4666 23.4122 20.9706 23.8469 21.0426C24.2322 21.0893 25.1069 21.46 26.6456 23.4026L26.8229 23.6253C27.5722 24.56 28.5989 25.84 28.1202 26.9586Z" fill="#011C44"/>
<path d="M87.9867 2.12809C86.6417 1.98541 85.2899 1.91598 83.9374 1.92009C79.4534 1.92009 76.6667 4.77609 76.6667 9.37343V12.4948H72.9001C72.7233 12.4948 72.5537 12.565 72.4287 12.69C72.3036 12.815 72.2334 12.9846 72.2334 13.1614V18.2948C72.2334 18.4716 72.3036 18.6411 72.4287 18.7662C72.5537 18.8912 72.7233 18.9614 72.9001 18.9614H76.6667V29.2548C76.6667 29.4316 76.737 29.6011 76.862 29.7262C76.987 29.8512 77.1566 29.9214 77.3334 29.9214H82.6374C82.8142 29.9214 82.9838 29.8512 83.1088 29.7262C83.2338 29.6011 83.3041 29.4316 83.3041 29.2548V18.9614H87.0587C87.2206 18.9615 87.3769 18.9027 87.4986 18.796C87.6203 18.6893 87.699 18.5419 87.7201 18.3814L88.3827 13.2481C88.3951 13.154 88.3872 13.0584 88.3596 12.9676C88.332 12.8768 88.2853 12.7929 88.2227 12.7216C88.1601 12.6503 88.083 12.5932 87.9966 12.554C87.9101 12.5149 87.8163 12.4947 87.7214 12.4948H83.3041V9.88276C83.3041 8.58943 83.5641 8.04943 85.1814 8.04943H87.9001C88.0769 8.04943 88.2464 7.97919 88.3715 7.85417C88.4965 7.72914 88.5667 7.55957 88.5667 7.38276V2.78943C88.5668 2.62757 88.508 2.47122 88.4013 2.34953C88.2946 2.22784 88.1472 2.14914 87.9867 2.12809ZM87.2334 6.71476L85.1801 6.71609C82.3041 6.71609 81.9707 8.52409 81.9707 9.88276V13.1628C81.9707 13.3393 82.0408 13.5087 82.1655 13.6337C82.2903 13.7587 82.4595 13.8291 82.6361 13.8294H86.9641L86.4721 17.6294H82.6374C82.4606 17.6294 82.291 17.6997 82.166 17.8247C82.041 17.9497 81.9707 18.1193 81.9707 18.2961V28.5868H78.0001V18.2961C78.0001 18.1193 77.9298 17.9497 77.8048 17.8247C77.6798 17.6997 77.5102 17.6294 77.3334 17.6294H73.5681V13.8294H77.3334C77.5102 13.8294 77.6798 13.7592 77.8048 13.6342C77.9298 13.5091 78.0001 13.3396 78.0001 13.1628V9.37343C78.0001 5.54143 80.2201 3.25343 83.9374 3.25343C85.2827 3.25343 86.4974 3.32676 87.2334 3.39076V6.71476Z" fill="#011C44"/>
<path d="M144 10.25C142.863 10.25 141.751 10.5872 140.805 11.219C139.86 11.8509 139.123 12.7489 138.688 13.7996C138.252 14.8502 138.139 16.0064 138.36 17.1218C138.582 18.2372 139.13 19.2617 139.934 20.0659C140.738 20.87 141.763 21.4177 142.878 21.6395C143.994 21.8614 145.15 21.7475 146.2 21.3123C147.251 20.8771 148.149 20.1401 148.781 19.1945C149.413 18.2489 149.75 17.1372 149.75 16C149.75 14.475 149.144 13.0125 148.066 11.9341C146.988 10.8558 145.525 10.25 144 10.25ZM144 20.25C143.159 20.25 142.338 20.0007 141.639 19.5337C140.94 19.0668 140.395 18.403 140.074 17.6264C139.752 16.8498 139.668 15.9953 139.832 15.1709C139.996 14.3464 140.4 13.5892 140.995 12.9948C141.589 12.4004 142.346 11.9956 143.171 11.8317C143.995 11.6677 144.85 11.7518 145.626 12.0735C146.403 12.3952 147.067 12.9399 147.534 13.6388C148.001 14.3377 148.25 15.1594 148.25 16C148.247 17.1262 147.798 18.2052 147.002 19.0016C146.205 19.7979 145.126 20.2467 144 20.25ZM149.5 3.75H138.5C136.71 3.75 134.993 4.46116 133.727 5.72703C132.461 6.9929 131.75 8.70979 131.75 10.5V21.5C131.75 23.2902 132.461 25.0071 133.727 26.273C134.993 27.5388 136.71 28.25 138.5 28.25H149.5C151.29 28.25 153.007 27.5388 154.273 26.273C155.539 25.0071 156.25 23.2902 156.25 21.5V10.5C156.25 8.70979 155.539 6.9929 154.273 5.72703C153.007 4.46116 151.29 3.75 149.5 3.75ZM154.75 21.5C154.75 22.8924 154.197 24.2277 153.212 25.2123C152.228 26.1969 150.892 26.75 149.5 26.75H138.5C137.108 26.75 135.772 26.1969 134.788 25.2123C133.803 24.2277 133.25 22.8924 133.25 21.5V10.5C133.25 9.10761 133.803 7.77225 134.788 6.78769C135.772 5.80312 137.108 5.25 138.5 5.25H149.5C150.892 5.25 152.228 5.80312 153.212 6.78769C154.197 7.77225 154.75 9.10761 154.75 10.5V21.5ZM151.75 9.5C151.75 9.74723 151.677 9.9889 151.539 10.1945C151.402 10.4 151.207 10.5602 150.978 10.6548C150.75 10.7495 150.499 10.7742 150.256 10.726C150.014 10.6778 149.791 10.5587 149.616 10.3839C149.441 10.2091 149.322 9.98634 149.274 9.74386C149.226 9.50139 149.251 9.25005 149.345 9.02165C149.44 8.79324 149.6 8.59801 149.806 8.46066C150.011 8.32331 150.253 8.25 150.5 8.25C150.832 8.25 151.149 8.3817 151.384 8.61612C151.618 8.85054 151.75 9.16848 151.75 9.5Z" fill="#011C44"/>
</svg>
